# xmcd CD database file
#
# Track frame offsets:
#	150
#	16110
#	59265
#	92642
#	126360
#	146012
#	182027
#	222840
#
# Disc length: 3397 seconds
#
# Revision: 5
# Processed by: cddbd v1.5.1PL2 Copyright (c) Steve Scherf et al.
# Submitted via: CDex 1.51
#
DISCID=6d0d4308
DTITLE=Milt Jackson and John Coltrane - Bags and Trane
DYEAR=1959
DGENRE=Jazz
TTITLE0=Stairway to the Stars
TTITLE1=The Late Late Blues
TTITLE2=Bags and Trane
TTITLE3=Three Little Words
TTITLE4=The Night We Called It a Day
TTITLE5=Be-Bop
TTITLE6=Blues Legacy
TTITLE7=Centerpiece
EXTD=Milt Jackson\nJohn Coltrane\nHank Jones\nPaul Chambers\nConnie Kay YEAR: 1959
EXTT0=
EXTT1=
EXTT2=
EXTT3=
EXTT4=
EXTT5=
EXTT6=
EXTT7=
PLAYORDER=
